<mxfile host="65bd71144e">
    <diagram id="1NnckhQbtD3DEUqUYym-" name="第 1 页">
        <mxGraphModel dx="2328" dy="902" grid="1" gridSize="10" guides="1" tooltips="1" connect="1" arrows="1" fold="1" page="1" pageScale="1" pageWidth="827" pageHeight="1169" math="1" shadow="0">
            <root>
                <mxCell id="0"/>
                <mxCell id="1" parent="0"/>
                <mxCell id="47" style="edgeStyle=none;html=1;exitX=0.5;exitY=1;exitDx=0;exitDy=0;entryX=0.5;entryY=0;entryDx=0;entryDy=0;fontSize=18;" edge="1" parent="1" source="42" target="46">
                    <mxGeometry relative="1" as="geometry"/>
                </mxCell>
                <mxCell id="42" value="" style="rounded=1;whiteSpace=wrap;html=1;fontSize=18;" vertex="1" parent="1">
                    <mxGeometry x="220" y="890" width="280" height="350" as="geometry"/>
                </mxCell>
                <mxCell id="20" style="edgeStyle=none;html=1;exitX=0.5;exitY=1;exitDx=0;exitDy=0;entryX=0.5;entryY=0;entryDx=0;entryDy=0;fontSize=18;" edge="1" parent="1" source="3" target="5">
                    <mxGeometry relative="1" as="geometry"/>
                </mxCell>
                <mxCell id="3" value="" style="rounded=0;whiteSpace=wrap;html=1;fontSize=18;" vertex="1" parent="1">
                    <mxGeometry x="120" y="170" width="480" height="120" as="geometry"/>
                </mxCell>
                <mxCell id="4" value="Rendering Equation" style="text;html=1;strokeColor=none;fillColor=none;align=center;verticalAlign=middle;whiteSpace=wrap;rounded=0;fontSize=18;" vertex="1" parent="1">
                    <mxGeometry x="275" y="170" width="170" height="30" as="geometry"/>
                </mxCell>
                <mxCell id="13" style="edgeStyle=none;html=1;exitX=0.5;exitY=1;exitDx=0;exitDy=0;entryX=0.5;entryY=0;entryDx=0;entryDy=0;fontSize=18;" edge="1" parent="1" source="5" target="12">
                    <mxGeometry relative="1" as="geometry"/>
                </mxCell>
                <mxCell id="5" value="$$\frac{\partial}{\partial\pmb\pi}$$" style="rounded=1;whiteSpace=wrap;html=1;fontSize=18;" vertex="1" parent="1">
                    <mxGeometry x="300" y="330" width="120" height="60" as="geometry"/>
                </mxCell>
                <mxCell id="16" style="edgeStyle=none;html=1;exitX=0.5;exitY=1;exitDx=0;exitDy=0;entryX=0.5;entryY=0;entryDx=0;entryDy=0;fontSize=18;" edge="1" parent="1" source="12" target="15">
                    <mxGeometry relative="1" as="geometry"/>
                </mxCell>
                <mxCell id="12" value="&lt;font style=&quot;font-size: 18px&quot;&gt;$$\frac{\partial}{\partial\pmb\pi}&lt;br&gt;L(\pmb\omega_o)=\frac{\partial}{\partial\pmb\pi}&lt;br&gt;\int_{\mathbb S^2}\underbrace{L_i(\pmb\omega_i)f_s(\pmb\omega_i,\pmb\omega_o)}_{f_{RE}(\pmb\omega_i)}\mathrm d\sigma(\pmb\omega_i)+\frac{\partial}{\partial\pmb\pi}&lt;br&gt;L_e(\pmb\omega_o)$$&lt;/font&gt;" style="rounded=0;whiteSpace=wrap;html=1;" vertex="1" parent="1">
                    <mxGeometry x="80" y="430" width="560" height="100" as="geometry"/>
                </mxCell>
                <mxCell id="35" style="edgeStyle=none;html=1;exitX=0.5;exitY=1;exitDx=0;exitDy=0;entryX=0.5;entryY=0;entryDx=0;entryDy=0;fontSize=18;" edge="1" parent="1" source="15" target="27">
                    <mxGeometry relative="1" as="geometry"/>
                </mxCell>
                <mxCell id="36" style="edgeStyle=none;html=1;exitX=0.5;exitY=1;exitDx=0;exitDy=0;entryX=0.5;entryY=0;entryDx=0;entryDy=0;fontSize=18;" edge="1" parent="1" source="15" target="30">
                    <mxGeometry relative="1" as="geometry"/>
                </mxCell>
                <mxCell id="37" style="edgeStyle=none;html=1;exitX=0.5;exitY=1;exitDx=0;exitDy=0;entryX=0.5;entryY=0;entryDx=0;entryDy=0;fontSize=18;" edge="1" parent="1" source="15" target="22">
                    <mxGeometry relative="1" as="geometry"/>
                </mxCell>
                <mxCell id="15" value="Reynolds Transport Theorem" style="rounded=1;whiteSpace=wrap;html=1;fontSize=18;" vertex="1" parent="1">
                    <mxGeometry x="225" y="570" width="270" height="60" as="geometry"/>
                </mxCell>
                <mxCell id="19" value="$$L(\pmb\omega_o)=\int_{\mathbb S^2}\underbrace{L_i(\pmb\omega_i)f_s(\pmb\omega_i,\pmb\omega_o)}_{f_{RE}(\pmb\omega_i)}\mathrm d\sigma(\pmb\omega_i)+L_e(\pmb\omega_o)&lt;br&gt;$$" style="rounded=0;whiteSpace=wrap;html=1;fontSize=18;" vertex="1" parent="1">
                    <mxGeometry x="120" y="200" width="480" height="90" as="geometry"/>
                </mxCell>
                <mxCell id="52" style="edgeStyle=orthogonalEdgeStyle;html=1;exitX=0.5;exitY=1;exitDx=0;exitDy=0;entryX=1;entryY=0.5;entryDx=0;entryDy=0;fontSize=18;" edge="1" parent="1" source="22" target="46">
                    <mxGeometry relative="1" as="geometry"/>
                </mxCell>
                <mxCell id="22" value="$$\frac{\mathrm d}{\mathrm d\pi}L_e(\pmb\omega_o)&lt;br&gt;$$" style="rounded=0;whiteSpace=wrap;html=1;fontSize=18;" vertex="1" parent="1">
                    <mxGeometry x="560" y="720" width="160" height="80" as="geometry"/>
                </mxCell>
                <mxCell id="28" value="" style="group" vertex="1" connectable="0" parent="1">
                    <mxGeometry x="-80" y="720" width="240" height="110" as="geometry"/>
                </mxCell>
                <mxCell id="26" value="" style="rounded=0;whiteSpace=wrap;html=1;fontSize=18;" vertex="1" parent="28">
                    <mxGeometry width="240" height="110" as="geometry"/>
                </mxCell>
                <mxCell id="17" value="$$\int_{\mathbb S^2}\frac{\mathrm d}{\mathrm d\pi}f_{RE}(\pmb\omega_i)\mathrm d\sigma(\pmb\omega_i)$$" style="rounded=0;whiteSpace=wrap;html=1;fontSize=18;" vertex="1" parent="28">
                    <mxGeometry y="30" width="240" height="80" as="geometry"/>
                </mxCell>
                <mxCell id="27" value="Interior Integral" style="text;html=1;strokeColor=none;fillColor=none;align=center;verticalAlign=middle;whiteSpace=wrap;rounded=0;fontSize=18;" vertex="1" parent="28">
                    <mxGeometry x="50" width="140" height="30" as="geometry"/>
                </mxCell>
                <mxCell id="31" value="" style="group" vertex="1" connectable="0" parent="1">
                    <mxGeometry x="200" y="720" width="320" height="110" as="geometry"/>
                </mxCell>
                <mxCell id="29" value="" style="rounded=0;whiteSpace=wrap;html=1;fontSize=18;" vertex="1" parent="31">
                    <mxGeometry width="320" height="110" as="geometry"/>
                </mxCell>
                <mxCell id="18" value="$$\int_{\partial\mathbb S^2}V_{\partial\mathbb S^2}(\pmb\omega_i)\Delta f_{RE}(\pmb\omega_i)\mathrm d\mathcal L(\pmb\omega)$$" style="rounded=0;whiteSpace=wrap;html=1;fontSize=18;" vertex="1" parent="31">
                    <mxGeometry y="30" width="320" height="80" as="geometry"/>
                </mxCell>
                <mxCell id="30" value="Boundary Integral" style="text;html=1;strokeColor=none;fillColor=none;align=center;verticalAlign=middle;whiteSpace=wrap;rounded=0;fontSize=18;" vertex="1" parent="31">
                    <mxGeometry x="87.5" width="145" height="30" as="geometry"/>
                </mxCell>
                <mxCell id="38" value="Edge Sampling" style="rounded=1;whiteSpace=wrap;html=1;fontSize=18;" vertex="1" parent="1">
                    <mxGeometry x="240" y="920" width="240" height="60" as="geometry"/>
                </mxCell>
                <mxCell id="39" value="Reparameterization" style="rounded=1;whiteSpace=wrap;html=1;fontSize=18;" vertex="1" parent="1">
                    <mxGeometry x="240" y="1000" width="240" height="60" as="geometry"/>
                </mxCell>
                <mxCell id="40" value="Area Sampling" style="rounded=1;whiteSpace=wrap;html=1;fontSize=18;" vertex="1" parent="1">
                    <mxGeometry x="240" y="1080" width="240" height="60" as="geometry"/>
                </mxCell>
                <mxCell id="41" value="Path Space &lt;br&gt;Differentiable Rendering" style="rounded=1;whiteSpace=wrap;html=1;fontSize=18;" vertex="1" parent="1">
                    <mxGeometry x="240" y="1159" width="240" height="60" as="geometry"/>
                </mxCell>
                <mxCell id="44" value="Special Treatments" style="text;html=1;strokeColor=none;fillColor=none;align=center;verticalAlign=middle;whiteSpace=wrap;rounded=0;fontSize=18;" vertex="1" parent="1">
                    <mxGeometry x="275" y="890" width="170" height="30" as="geometry"/>
                </mxCell>
                <mxCell id="45" style="edgeStyle=none;html=1;exitX=0.5;exitY=1;exitDx=0;exitDy=0;entryX=0.5;entryY=0;entryDx=0;entryDy=0;fontSize=18;" edge="1" parent="1" source="18" target="44">
                    <mxGeometry relative="1" as="geometry"/>
                </mxCell>
                <mxCell id="46" value="Derivative" style="rounded=0;whiteSpace=wrap;html=1;fontSize=18;" vertex="1" parent="1">
                    <mxGeometry x="300" y="1320" width="120" height="60" as="geometry"/>
                </mxCell>
                <mxCell id="50" style="edgeStyle=orthogonalEdgeStyle;html=1;exitX=0.5;exitY=1;exitDx=0;exitDy=0;entryX=0;entryY=0.5;entryDx=0;entryDy=0;fontSize=18;" edge="1" parent="1" source="48" target="46">
                    <mxGeometry relative="1" as="geometry"/>
                </mxCell>
                <mxCell id="48" value="Automatic Differentiation" style="rounded=1;whiteSpace=wrap;html=1;fontSize=18;" vertex="1" parent="1">
                    <mxGeometry x="-55" y="1000" width="190" height="60" as="geometry"/>
                </mxCell>
                <mxCell id="49" style="edgeStyle=none;html=1;exitX=0.5;exitY=1;exitDx=0;exitDy=0;entryX=0.5;entryY=0;entryDx=0;entryDy=0;fontSize=18;" edge="1" parent="1" source="17" target="48">
                    <mxGeometry relative="1" as="geometry"/>
                </mxCell>
            </root>
        </mxGraphModel>
    </diagram>
</mxfile>